<?xml version="1.0" standalone="no"?><!DOCTYPE svg PUBLIC "-//W3C//DTD SVG 1.1//EN" "http://www.w3.org/Graphics/SVG/1.1/DTD/svg11.dtd"><svg t="1588128090016" class="icon" viewBox="0 0 1024 1024" version="1.1" xmlns="http://www.w3.org/2000/svg" p-id="3400" xmlns:xlink="http://www.w3.org/1999/xlink" width="200" height="200"><defs><style type="text/css"></style></defs><path d="M539.558659 469.974861l-0.103354-318.761927c-0.01535-15.998369-12.989849-28.55229-28.981055-28.039613-15.991206 0.518816-28.945239 13.907755-28.937053 29.907147l0.107447 316.894394-329.371566 0c-15.994276 0.515746-28.950356 12.038174-28.936029 28.037567 0.01228 16.002462 12.986779 30.422893 28.981055 29.907147l329.343937 0 0.107447 342.176197c0.01228 16.002462 12.983709 28.553313 28.977985 28.037567 15.991206-0.512676 28.948309-13.904685 28.936029-29.906124l-0.104377-340.306616 329.36645 0c15.996322-0.517793 28.950356-13.907755 28.936029-29.907147-0.01228-16.001439-12.987802-28.555359-28.977985-28.037567L539.558659 469.974861 539.558659 469.974861zM539.558659 469.974861" p-id="3401" fill="#DCDCDC"></path></svg>